<svg width="207" height="207" viewBox="0 0 207 207" fill="none" xmlns="http://www.w3.org/2000/svg">
<g clip-path="url(#clip0_1717_952)">
<path d="M103.45 206.9C160.584 206.9 206.9 160.584 206.9 103.45C206.9 46.3161 160.584 0 103.45 0C46.3161 0 0 46.3161 0 103.45C0 160.584 46.3161 206.9 103.45 206.9Z" fill="#DDDB1F"/>
<path d="M103.45 185.96C149.019 185.96 185.96 149.019 185.96 103.45C185.96 57.881 149.019 20.94 103.45 20.94C57.8809 20.94 20.9399 57.881 20.9399 103.45C20.9399 149.019 57.8809 185.96 103.45 185.96Z" fill="#2D2D70"/>
<path d="M124.72 197.53L124.64 197.25C124.912 197.146 125.151 196.97 125.33 196.74C125.649 196.083 125.881 195.387 126.02 194.67L127.18 190.33L126.46 187.85C126.387 187.502 126.266 187.165 126.1 186.85C125.985 186.727 125.835 186.643 125.67 186.61C125.444 186.547 125.205 186.547 124.98 186.61L124.4 186.78L124.32 186.5L130.06 184.84L130.14 185.12L129.6 185.28C129.349 185.339 129.118 185.463 128.93 185.64C128.816 185.764 128.746 185.922 128.73 186.09C128.74 186.431 128.804 186.769 128.92 187.09L129.51 189.09L133.18 192.77C133.601 193.251 134.089 193.669 134.63 194.01C134.905 194.106 135.205 194.106 135.48 194.01L135.56 194.29L130.66 195.7L130.58 195.42L130.8 195.36C131.019 195.314 131.22 195.206 131.38 195.05C131.423 195.01 131.454 194.959 131.472 194.903C131.49 194.847 131.492 194.787 131.48 194.73C131.216 194.279 130.878 193.877 130.48 193.54L127.65 190.69L126.65 194.3C126.452 194.844 126.367 195.422 126.4 196C126.422 196.067 126.459 196.127 126.51 196.176C126.561 196.225 126.622 196.261 126.69 196.28C127.018 196.365 127.362 196.365 127.69 196.28L127.77 196.55L124.72 197.53Z" fill="#0D1622"/>
<path d="M116.45 199C115.722 199.162 114.968 199.168 114.238 199.018C113.507 198.867 112.817 198.564 112.212 198.127C111.608 197.691 111.102 197.131 110.73 196.485C110.357 195.839 110.125 195.122 110.05 194.38C109.86 193.106 110.107 191.806 110.75 190.69C111.176 189.956 111.773 189.335 112.491 188.881C113.208 188.426 114.024 188.152 114.87 188.08C115.697 187.922 116.549 187.96 117.358 188.191C118.167 188.422 118.911 188.839 119.53 189.41C120.49 190.323 121.099 191.544 121.25 192.86C121.367 193.585 121.332 194.326 121.148 195.037C120.964 195.748 120.634 196.413 120.18 196.99C119.736 197.57 119.174 198.049 118.531 198.395C117.888 198.742 117.178 198.948 116.45 199ZM116.29 198.51C116.761 198.446 117.203 198.244 117.559 197.929C117.915 197.614 118.169 197.2 118.29 196.74C118.608 195.576 118.656 194.355 118.43 193.17C118.345 191.762 117.828 190.414 116.95 189.31C116.513 188.895 115.938 188.657 115.335 188.642C114.733 188.627 114.147 188.837 113.69 189.23C113.234 189.705 112.937 190.309 112.84 190.96C112.678 191.92 112.678 192.9 112.84 193.86C112.938 194.924 113.212 195.965 113.65 196.94C113.902 197.494 114.318 197.958 114.84 198.27C115.285 198.504 115.792 198.592 116.29 198.52V198.51Z" fill="#0D1622"/>
<path d="M107.85 199.78L102.36 199.72V199.43H102.63C102.919 199.461 103.211 199.42 103.48 199.31C103.631 199.236 103.751 199.113 103.82 198.96C103.908 198.587 103.945 198.203 103.93 197.82L103.99 192.61C104.039 191.973 103.971 191.333 103.79 190.72C103.642 190.397 103.397 190.128 103.09 189.95C102.715 189.727 102.286 189.613 101.85 189.62C101.331 189.601 100.817 189.733 100.37 190C99.9619 190.25 99.6406 190.62 99.4502 191.06C99.1905 191.822 99.0785 192.626 99.1202 193.43V197.77C99.1003 198.109 99.1479 198.449 99.2602 198.77C99.3363 198.948 99.4655 199.098 99.6302 199.2C99.9446 199.339 100.287 199.404 100.63 199.39V199.68H96.9502V199.39H97.1702C97.4277 199.402 97.6835 199.343 97.9102 199.22C98.1168 199.099 98.273 198.907 98.3502 198.68C98.4405 198.389 98.4778 198.084 98.4602 197.78V193.78C98.4339 192.872 98.528 191.964 98.7402 191.08C98.9648 190.423 99.4101 189.865 100 189.5C100.78 189.003 101.698 188.768 102.62 188.83C103.351 188.8 104.08 188.937 104.75 189.23C105.355 189.497 105.857 189.953 106.18 190.53C106.486 191.189 106.624 191.914 106.58 192.64V197.85C106.55 198.232 106.577 198.616 106.66 198.99C106.738 199.145 106.86 199.274 107.01 199.36C107.307 199.469 107.624 199.513 107.94 199.49L107.85 199.78Z" fill="#0D1622"/>
<path d="M91.34 193.13L91.79 190.18C91.8628 189.821 91.883 189.454 91.85 189.09C91.79 188.923 91.6778 188.779 91.53 188.68C91.2199 188.518 90.8793 188.422 90.53 188.4V188.11L95.91 188.93V189.22C95.5804 189.149 95.2396 189.149 94.91 189.22C94.7414 189.267 94.5935 189.369 94.49 189.51C94.3445 189.847 94.2534 190.205 94.22 190.57L93.22 197.39C93.1598 197.751 93.1598 198.119 93.22 198.48C93.2694 198.65 93.3797 198.796 93.53 198.89C93.838 199.057 94.1798 199.153 94.53 199.17V199.46L89.64 198.72C88.6982 198.605 87.7744 198.373 86.89 198.03C86.3452 197.775 85.8941 197.355 85.6 196.83C85.3014 196.299 85.1921 195.682 85.29 195.08C85.3379 194.718 85.4637 194.37 85.6588 194.061C85.8539 193.752 86.1135 193.489 86.42 193.29C86.9085 192.997 87.4613 192.829 88.03 192.8L86.03 188.85C85.8667 188.5 85.6726 188.165 85.45 187.85C85.2612 187.656 85.0163 187.527 84.75 187.48L84.8 187.19L88.11 187.69L90.65 193L91.34 193.13ZM90.55 198.29L91.26 193.68L90.81 193.61C90.2694 193.506 89.7159 193.49 89.17 193.56C88.7765 193.63 88.4214 193.839 88.17 194.15C87.8837 194.528 87.7073 194.978 87.66 195.45C87.5557 195.763 87.5283 196.097 87.58 196.423C87.6317 196.749 87.7611 197.058 87.9571 197.324C88.1532 197.589 88.4102 197.804 88.7066 197.95C89.0029 198.095 89.3299 198.167 89.66 198.16L90.55 198.29Z" fill="#0D1622"/>
<path d="M66.7202 192.58L67.7202 189.86L67.9802 189.96C67.8975 190.467 67.8975 190.983 67.9802 191.49C68.0843 191.846 68.277 192.169 68.5402 192.43C68.8218 192.646 69.1403 192.808 69.4802 192.91L70.2202 193.17L73.0002 185.44C73.1413 185.123 73.2292 184.785 73.2602 184.44C73.222 184.27 73.131 184.116 73.0002 184C72.8267 183.821 72.6096 183.69 72.3702 183.62L72.0402 183.5L72.1402 183.23L77.3902 185.09L77.2902 185.36L76.9602 185.24C76.7186 185.146 76.4571 185.115 76.2002 185.15C76.034 185.186 75.8833 185.273 75.7702 185.4C75.5879 185.677 75.4496 185.981 75.3602 186.3L72.6402 194L73.3602 194.25C73.8694 194.482 74.4463 194.517 74.9802 194.35C75.5913 194.072 76.0913 193.596 76.4002 193L76.6802 193.1L75.6802 195.81L66.7202 192.58Z" fill="#0D1622"/>
<path d="M63.2501 184.54L64.6101 181.89C64.8001 181.581 64.9386 181.243 65.0201 180.89C65.0202 180.712 64.9603 180.54 64.8501 180.4C64.6177 180.157 64.3388 179.963 64.0301 179.83L64.1601 179.57L69.0001 182.05L68.8601 182.31C68.5545 182.127 68.2137 182.011 67.8601 181.97C67.6858 181.973 67.5159 182.025 67.3701 182.12C67.1235 182.392 66.9241 182.703 66.7801 183.04L63.6101 189.17C63.4216 189.479 63.2863 189.817 63.2101 190.17C63.2049 190.349 63.2654 190.523 63.3801 190.66C63.6091 190.909 63.8886 191.107 64.2001 191.24L64.0701 191.5L59.6701 189.23C58.8135 188.826 58.0134 188.311 57.2901 187.7C56.8513 187.285 56.5539 186.743 56.4401 186.15C56.33 185.553 56.4252 184.936 56.7101 184.4C56.8692 184.069 57.0996 183.777 57.3849 183.545C57.6702 183.313 58.0032 183.148 58.3601 183.06C58.9121 182.926 59.4881 182.926 60.0401 183.06L59.4201 178.69C59.3735 178.317 59.2932 177.949 59.1801 177.59C59.0643 177.346 58.8757 177.143 58.6401 177.01L58.7801 176.75L61.7801 178.29L62.6001 184.17L63.2501 184.54ZM60.8501 189.18L63.0001 185L62.6001 184.79C62.1208 184.518 61.6007 184.326 61.0601 184.22C60.6787 184.174 60.2932 184.262 59.9701 184.47C59.582 184.742 59.2717 185.111 59.0701 185.54C58.7285 186.096 58.6139 186.762 58.7501 187.4C58.8775 187.705 59.0643 187.981 59.2995 188.213C59.5347 188.444 59.8136 188.627 60.1201 188.75L60.8501 189.18Z" fill="#0D1622"/>
<path d="M52.0899 185.09L47.6199 181.9L47.7899 181.67L48.0099 181.83C48.2312 182.018 48.4958 182.149 48.7799 182.21C48.9434 182.233 49.1099 182.198 49.2499 182.11C49.5419 181.862 49.7918 181.568 49.9899 181.24L52.9999 177C53.405 176.504 53.7167 175.938 53.9199 175.33C53.9716 174.991 53.9265 174.644 53.7899 174.33C53.6095 173.924 53.3184 173.578 52.9499 173.33C52.5346 173.019 52.0378 172.834 51.5199 172.8C51.0426 172.773 50.5683 172.892 50.1599 173.14C49.5153 173.621 48.966 174.218 48.5399 174.9L45.9999 178.43C45.7761 178.697 45.6154 179.012 45.5299 179.35C45.4857 179.538 45.5068 179.736 45.5899 179.91C45.7627 180.208 46.0066 180.459 46.2999 180.64L46.1299 180.87L43.1299 178.74L43.2999 178.5L43.4699 178.63C43.6812 178.787 43.9291 178.886 44.1899 178.92C44.4247 178.93 44.6564 178.863 44.8499 178.73C45.0879 178.537 45.2937 178.307 45.4599 178.05L47.7999 174.76C48.2963 173.995 48.8914 173.299 49.5699 172.69C50.1166 172.308 50.7733 172.115 51.4399 172.14C52.3686 172.194 53.2555 172.544 53.9699 173.14C54.5883 173.53 55.1084 174.057 55.4899 174.68C55.8384 175.245 55.9929 175.909 55.9299 176.57C55.8106 177.3 55.5078 177.989 55.0499 178.57L52.0499 182.82C51.8034 183.119 51.6074 183.457 51.4699 183.82C51.4432 183.988 51.4712 184.159 51.5499 184.31C51.7286 184.569 51.9604 184.787 52.2299 184.95L52.0899 185.09Z" fill="#0D1622"/>
<path d="M35.8799 172.45L38.2199 169.78L38.4499 170C37.9788 170.681 37.7563 171.504 37.8199 172.33C37.8544 173.055 38.1658 173.738 38.6899 174.24C39.0124 174.57 39.4491 174.763 39.9099 174.78C40.0961 174.786 40.2814 174.753 40.4538 174.682C40.6261 174.611 40.7816 174.505 40.9099 174.37C41.0631 174.213 41.1673 174.015 41.2099 173.8C41.2741 173.47 41.2741 173.13 41.2099 172.8C41.0417 172.176 40.8313 171.565 40.5799 170.97C40.1514 170.027 39.92 169.006 39.8999 167.97C39.9514 167.295 40.2298 166.657 40.6899 166.16C40.9827 165.837 41.3413 165.581 41.7415 165.409C42.1417 165.236 42.5742 165.151 43.0099 165.16C43.9856 165.17 44.9186 165.561 45.6099 166.25C45.8436 166.465 46.0547 166.703 46.2399 166.96C46.4521 167.278 46.6393 167.613 46.7999 167.96C46.8816 168.157 47.0004 168.337 47.1499 168.49C47.2697 168.589 47.4155 168.652 47.5699 168.67C47.7762 168.69 47.9839 168.652 48.1699 168.56L48.3799 168.76L45.6599 171.76L45.4499 171.56C45.9989 170.733 46.2687 169.752 46.2199 168.76C46.1702 167.96 45.8117 167.211 45.2199 166.67C44.8629 166.305 44.38 166.09 43.8699 166.07C43.6571 166.06 43.4448 166.098 43.2478 166.179C43.0509 166.26 42.8741 166.383 42.7299 166.54C42.5536 166.727 42.4324 166.959 42.3799 167.21C42.3195 167.507 42.3195 167.813 42.3799 168.11C42.4939 168.655 42.6613 169.188 42.8799 169.7C43.1919 170.442 43.433 171.212 43.5999 172C43.6961 172.489 43.6961 172.991 43.5999 173.48C43.4843 173.945 43.25 174.372 42.9199 174.72C42.6522 175.029 42.3223 175.277 41.9518 175.45C41.5812 175.622 41.1785 175.714 40.7699 175.72C40.3368 175.728 39.9066 175.648 39.5047 175.487C39.1028 175.326 38.7373 175.085 38.4299 174.78C38.1816 174.552 37.9632 174.293 37.7799 174.01C37.6104 173.739 37.4696 173.451 37.3599 173.15C37.2802 172.897 37.151 172.663 36.9799 172.46C36.9406 172.415 36.8911 172.379 36.8355 172.357C36.7799 172.334 36.7197 172.325 36.6599 172.33C36.4509 172.389 36.2566 172.491 36.0899 172.63L35.8799 172.45Z" fill="#0D1622"/>
<path d="M27.1699 162.37L29.3599 160.5L29.5399 160.72C29.2185 161.123 28.9713 161.58 28.8099 162.07C28.7202 162.428 28.7202 162.802 28.8099 163.16C28.9408 163.488 29.1344 163.787 29.3799 164.04L29.8899 164.65L36.1399 159.32C36.4127 159.111 36.6551 158.866 36.8599 158.59C36.9077 158.427 36.9077 158.253 36.8599 158.09C36.7952 157.849 36.6754 157.627 36.5099 157.44L36.2799 157.18L36.4999 156.99L40.1099 161.22L39.8899 161.41L39.6599 161.14C39.4979 160.938 39.2882 160.78 39.0499 160.68C38.8905 160.629 38.7193 160.629 38.5599 160.68C38.2628 160.832 37.9899 161.028 37.7499 161.26L31.5099 166.59L32.0099 167.17C32.333 167.629 32.8196 167.948 33.3699 168.06C34.0571 168.115 34.7422 167.931 35.3099 167.54L35.4999 167.77L33.3099 169.64L27.1699 162.37Z" fill="#0D1622"/>
<path d="M23.7899 156.42L27.4199 154.06L27.2999 153.88C27.1726 153.637 26.9873 153.43 26.7605 153.277C26.5337 153.123 26.2724 153.028 25.9999 153C25.3346 153.01 24.6833 153.193 24.1099 153.53L23.9499 153.28L28.6199 150.28L28.7799 150.53C28.38 150.85 28.0412 151.24 27.7799 151.68C27.5829 151.975 27.488 152.326 27.5099 152.68C27.5814 153.073 27.7384 153.445 27.9699 153.77L30.4799 152.13C30.7921 151.949 31.0809 151.731 31.3399 151.48C31.4315 151.364 31.4745 151.217 31.4599 151.07C31.4311 150.845 31.345 150.632 31.2099 150.45L30.8599 149.92C30.4286 149.185 29.7681 148.613 28.9799 148.29C28.1707 148.045 27.3039 148.07 26.5099 148.36L26.3499 148.12L29.4499 146.67L34.4499 154.38L34.1999 154.54L34.0099 154.24C33.8811 154.018 33.6945 153.835 33.4699 153.71C33.3201 153.628 33.1449 153.607 32.9799 153.65C32.6624 153.756 32.3649 153.915 32.0999 154.12L26.1999 157.9C25.9493 158.058 25.7088 158.232 25.4799 158.42C25.3589 158.551 25.288 158.721 25.2799 158.9C25.2805 159.187 25.3715 159.467 25.5399 159.7L25.7399 159.99L25.4899 160.15L20.6299 152.69L23.2699 151L23.4299 151.25C22.9904 151.643 22.6481 152.132 22.4299 152.68C22.2954 153.13 22.2954 153.61 22.4299 154.06C22.6222 154.58 22.8846 155.071 23.2099 155.52L23.7899 156.42Z" fill="#0D1622"/>
<path d="M28.3898 145.07L28.1298 145.19L27.9798 144.88C27.8892 144.653 27.741 144.453 27.5498 144.3C27.3974 144.194 27.2155 144.138 27.0298 144.14C26.7067 144.213 26.3966 144.334 26.1098 144.5L19.7798 147.5C19.4629 147.626 19.1664 147.798 18.8998 148.01C18.7903 148.142 18.7302 148.308 18.7298 148.48C18.7176 148.727 18.7729 148.972 18.8898 149.19L19.0398 149.51L18.7798 149.63L16.7798 145.33C16.2983 144.398 16.0124 143.377 15.9398 142.33C15.9056 141.347 16.1897 140.379 16.7498 139.57C17.2602 138.878 17.9102 138.3 18.6578 137.875C19.4053 137.449 20.2338 137.185 21.0898 137.1C21.6984 137.046 22.3119 137.103 22.8998 137.27C23.4307 137.437 23.9259 137.701 24.3598 138.05C24.862 138.455 25.3032 138.929 25.6698 139.46C25.948 139.88 26.1921 140.321 26.3998 140.78L28.3898 145.07ZM17.5898 145.7L25.0898 142.15C25.3433 142.045 25.582 141.907 25.7998 141.74C25.8706 141.664 25.9099 141.564 25.9098 141.46C25.9096 141.248 25.8581 141.038 25.7598 140.85C25.6156 140.497 25.3886 140.183 25.098 139.936C24.8073 139.689 24.4616 139.516 24.0898 139.43C22.7784 139.259 21.4472 139.522 20.2998 140.18C19.2615 140.626 18.3432 141.312 17.6198 142.18C17.223 142.666 17.0042 143.273 16.9998 143.9C17.0846 144.531 17.2845 145.141 17.5898 145.7Z" fill="#0D1622"/>
<path d="M16.08 126.93L18.93 126.18C19.2806 126.11 19.618 125.985 19.93 125.81C20.0608 125.688 20.1485 125.526 20.18 125.35C20.2083 125.011 20.164 124.67 20.05 124.35L20.33 124.27L21.7 129.5L21.42 129.58C21.3594 129.244 21.2301 128.924 21.04 128.64C20.9235 128.51 20.7699 128.419 20.6 128.38C20.2329 128.374 19.8675 128.431 19.52 128.55L12.84 130.3C12.4895 130.371 12.1521 130.495 11.84 130.67C11.7075 130.787 11.6192 130.946 11.59 131.12C11.5637 131.458 11.6044 131.798 11.71 132.12L11.43 132.2L10.26 127.71C9.88664 126.611 9.88664 125.419 10.26 124.32C10.4169 123.957 10.6556 123.636 10.9575 123.381C11.2594 123.126 11.6162 122.944 12 122.85C12.6241 122.676 13.2906 122.74 13.87 123.03C14.4902 123.348 14.9889 123.861 15.29 124.49C15.638 125.273 15.9028 126.091 16.08 126.93ZM11.08 128.25L15.53 127.08C15.53 126.91 15.47 126.79 15.44 126.7C15.3878 126.433 15.2786 126.18 15.1198 125.96C14.961 125.739 14.7564 125.555 14.52 125.42C13.9353 125.173 13.2796 125.151 12.68 125.36C12.0665 125.468 11.5164 125.804 11.14 126.3C11.0016 126.548 10.9176 126.822 10.8935 127.105C10.8693 127.388 10.9056 127.672 11 127.94L11.08 128.25Z" fill="#0D1622"/>
<path d="M15.37 113.7L15.84 117.42L16.92 117.74C17.2001 117.833 17.4956 117.87 17.79 117.85C17.9226 117.841 18.0502 117.795 18.158 117.717C18.2659 117.64 18.3497 117.533 18.4 117.41C18.4867 117.064 18.507 116.704 18.46 116.35H18.75L19.19 119.86H18.9C18.8114 119.51 18.6026 119.202 18.31 118.99C17.7806 118.672 17.2079 118.433 16.61 118.28L7.70996 115.57V115.42L15.89 110.53C16.4254 110.246 16.9116 109.878 17.33 109.44C17.479 109.205 17.5425 108.926 17.51 108.65H17.8L18.44 113.75H18.16V113.54C18.1459 113.24 18.049 112.949 17.88 112.7C17.8331 112.648 17.7735 112.608 17.707 112.585C17.6404 112.563 17.5691 112.557 17.5 112.57C17.4032 112.583 17.3089 112.61 17.22 112.65L16.66 112.96L15.37 113.7ZM14.82 114.03L11.39 116.03L15.22 117.19L14.82 114.03Z" fill="#0D1622"/>
<path d="M13.0001 103.62H16.0001C16.3659 103.653 16.7346 103.622 17.0901 103.53C17.2501 103.45 17.3799 103.32 17.4601 103.16C17.5774 102.84 17.6252 102.499 17.6001 102.16H17.8901L17.8101 107.61H17.5201C17.5516 107.272 17.5107 106.931 17.4001 106.61C17.3275 106.451 17.2044 106.321 17.0501 106.24C16.6974 106.132 16.3283 106.088 15.9601 106.11L9.0001 106.05C8.63429 106.018 8.26571 106.048 7.9101 106.14C7.7506 106.218 7.62325 106.348 7.5501 106.51C7.43514 106.83 7.38417 107.17 7.4001 107.51H7.1001L7.1801 102.57C7.15697 101.62 7.26123 100.672 7.4901 99.75C7.6607 99.1726 8.01101 98.6646 8.4901 98.3C8.97709 97.9369 9.57298 97.75 10.1801 97.77C10.5458 97.7656 10.9079 97.8413 11.2413 97.9915C11.5747 98.1418 11.8712 98.3631 12.1101 98.64C12.4676 99.0847 12.7113 99.6098 12.8201 100.17L16.4601 97.67C16.7758 97.4663 17.0706 97.2318 17.3401 96.97C17.5086 96.7587 17.6066 96.4999 17.6201 96.23H17.9101L17.8601 99.58L13.0001 102.92V103.62ZM7.7901 103.54L12.4501 103.61V103.17C12.4895 102.618 12.4319 102.063 12.2801 101.53C12.1534 101.168 11.9017 100.863 11.5701 100.67C11.1573 100.442 10.6914 100.328 10.2201 100.34C9.89758 100.303 9.57102 100.332 9.25999 100.425C8.94896 100.518 8.65989 100.673 8.4101 100.88C8.19211 101.127 8.02584 101.416 7.92107 101.728C7.81631 102.041 7.77517 102.371 7.8001 102.7L7.7901 103.54Z" fill="#0D1622"/>
<path d="M9.0001 84.3L11.8401 84.73V85.01C11.3246 85.0387 10.8176 85.1536 10.3401 85.35C10.0107 85.5134 9.731 85.762 9.5301 86.07C9.36894 86.3818 9.26721 86.7209 9.2301 87.07L9.1201 87.86L17.2301 89.09C17.5585 89.1606 17.8956 89.1808 18.2301 89.15C18.3942 89.0941 18.5372 88.9894 18.6401 88.85C18.7825 88.6496 18.8688 88.4149 18.8901 88.17L18.9501 87.82H19.2301L18.4001 93.33H18.1101L18.1701 92.98C18.2145 92.7223 18.1939 92.4577 18.1101 92.21C18.0514 92.0522 17.9378 91.9208 17.7901 91.84C17.4713 91.71 17.1336 91.6324 16.7901 91.61L8.6801 90.39L8.5701 91.15C8.4353 91.694 8.51027 92.2688 8.7801 92.76C9.19135 93.3143 9.78116 93.7099 10.4501 93.88V94.18L7.6001 93.75L9.0001 84.3Z" fill="#0D1622"/>
<path d="M10.59 78L18.39 74.82L14 73.54C13.581 73.3707 13.1197 73.3357 12.68 73.44C12.4744 73.5488 12.2969 73.7039 12.1615 73.893C12.0261 74.0822 11.9366 74.3003 11.9 74.53L11.62 74.44L12.62 71.07L12.9 71.15C12.8431 71.4608 12.8431 71.7793 12.9 72.09C12.9522 72.2802 13.0688 72.4464 13.23 72.56C13.5351 72.7596 13.8739 72.9019 14.23 72.98L22.73 75.48L22.65 75.73L12.07 80.14L18.56 82.05C18.7668 82.1405 18.9916 82.1821 19.217 82.1717C19.4425 82.1613 19.6625 82.0991 19.86 81.99C20.1443 81.7895 20.3495 81.4959 20.44 81.16L20.51 80.92L20.79 81L19.73 84.62L19.45 84.54C19.6137 84.129 19.6137 83.671 19.45 83.26C19.1984 82.9126 18.8221 82.6761 18.4 82.6L11.19 80.48L10.86 80.62C10.5967 80.7092 10.3549 80.8522 10.15 81.04C9.98724 81.2361 9.86795 81.4644 9.80002 81.71L9.52002 81.63L10.59 78Z" fill="#0D1622"/>
<path d="M15.7598 65.2L19.7598 66.96L19.8498 66.77C19.9803 66.5235 20.0485 66.2489 20.0485 65.97C20.0485 65.6911 19.9803 65.4165 19.8498 65.17C19.4713 64.6237 18.9626 64.1804 18.3698 63.88L18.4898 63.6L23.5798 65.88L23.4598 66.15C22.9689 65.9755 22.4507 65.8909 21.9298 65.9C21.5705 65.9047 21.2214 66.02 20.9298 66.23C20.6356 66.506 20.4126 66.8491 20.2798 67.23L22.9998 68.43C23.3171 68.5931 23.6528 68.7173 23.9998 68.8C24.1463 68.809 24.2913 68.7665 24.4098 68.68C24.5815 68.5301 24.7152 68.3416 24.7998 68.13L25.0598 67.55C25.4737 66.8023 25.5944 65.9273 25.3984 65.0954C25.2025 64.2635 24.7039 63.5344 23.9998 63.05L24.1198 62.78L26.9998 64.6L23.2498 73L22.9998 72.87L23.1398 72.55C23.2581 72.3184 23.3133 72.0597 23.2998 71.8C23.2745 71.6339 23.1975 71.4799 23.0798 71.36C22.8149 71.1583 22.5217 70.9965 22.2098 70.88L15.8198 68C15.5541 67.8802 15.2801 67.78 14.9998 67.7C14.8277 67.6663 14.6493 67.6985 14.4998 67.79C14.2539 67.9422 14.0644 68.1704 13.9598 68.44L13.8198 68.77L13.5498 68.65L17.1898 60.52L20.0598 61.81L19.9398 62.08C19.362 61.9079 18.7507 61.8805 18.1598 62C17.7078 62.1298 17.3064 62.3951 17.0098 62.76C16.6808 63.2026 16.4118 63.6868 16.2098 64.2L15.7598 65.2Z" fill="#0D1622"/>
<path d="M25.8401 56.88L28.3701 58.46C28.6741 58.6749 29.0122 58.8372 29.3701 58.94C29.547 58.9581 29.7244 58.912 29.8701 58.81C30.1333 58.5993 30.3511 58.3373 30.5101 58.04L30.7501 58.19L27.8701 62.81L27.6301 62.66C27.8303 62.3858 27.97 62.0722 28.0401 61.74C28.065 61.5655 28.0259 61.3879 27.9301 61.24C27.6852 60.9676 27.3941 60.7407 27.0701 60.57L21.2101 56.92C20.906 56.705 20.568 56.5428 20.2101 56.44C20.0332 56.4218 19.8557 56.468 19.7101 56.57C19.4468 56.7807 19.2291 57.0426 19.0701 57.34L18.8301 57.19L21.4401 53C21.9099 52.1762 22.4884 51.4194 23.1601 50.75C23.602 50.3331 24.1666 50.07 24.7701 50C25.3737 49.9315 25.9822 50.0766 26.4901 50.41C26.8072 50.5958 27.0798 50.8487 27.2888 51.151C27.4978 51.4533 27.6382 51.7977 27.7001 52.16C27.7711 52.7231 27.7095 53.295 27.5201 53.83L31.9201 53.56C32.2828 53.5502 32.6441 53.5101 33.0001 53.44C33.2536 53.3417 33.4703 53.1669 33.6201 52.94L33.8701 53.1L32.1001 55.94L26.1701 56.29L25.8401 56.88ZM21.4101 54.12L25.4101 56.58L25.6401 56.21C25.9529 55.7547 26.1893 55.2514 26.3401 54.72C26.4141 54.3415 26.354 53.949 26.1701 53.61C25.9364 53.19 25.59 52.8437 25.1701 52.61C24.6495 52.2186 23.995 52.0495 23.3501 52.14C23.0345 52.2405 22.742 52.4028 22.4896 52.6174C22.2373 52.832 22.0301 53.0946 21.8801 53.39L21.4101 54.12Z" fill="#0D1622"/>
<path d="M75.7699 19.2L72.2099 20.41L72.1199 21.53C72.0862 21.8251 72.11 22.1239 72.1899 22.41C72.2269 22.5368 72.2976 22.6512 72.3944 22.741C72.4913 22.8309 72.6107 22.8927 72.7399 22.92C73.0965 22.9265 73.4515 22.8724 73.7899 22.76L73.8899 23.04L70.5399 24.18L70.4399 23.9C70.7628 23.7388 71.0231 23.475 71.1799 23.15C71.3801 22.5658 71.4979 21.9567 71.5299 21.34L72.3999 12.07H72.5399L78.9799 19.07C79.3584 19.5411 79.815 19.9437 80.3299 20.26C80.5922 20.3515 80.8777 20.3515 81.1399 20.26L81.2299 20.54L76.3599 22.2L76.2599 21.92L76.4699 21.85C76.76 21.7786 77.0236 21.626 77.2299 21.41C77.2641 21.3489 77.282 21.28 77.282 21.21C77.282 21.14 77.2641 21.0711 77.2299 21.01C77.1992 20.9157 77.1518 20.8276 77.0899 20.75C76.9619 20.5828 76.8251 20.4226 76.6799 20.27L75.7699 19.2ZM75.3299 18.73L72.6499 15.73L72.2899 19.73L75.3299 18.73Z" fill="#0D1622"/>
<path d="M85.1502 14.81L85.7102 17.74C85.7495 18.1046 85.851 18.4597 86.0102 18.79C86.1204 18.9264 86.2709 19.0244 86.4402 19.07C86.7743 19.1133 87.1136 19.0929 87.4402 19.01V19.3L82.0902 20.3L82.1002 20C82.4531 19.9684 82.7946 19.8592 83.1002 19.68C83.2461 19.5793 83.3523 19.4307 83.4002 19.26C83.4278 18.8969 83.394 18.5318 83.3002 18.18L82.0002 11.41C81.9523 11.0619 81.8476 10.7241 81.6902 10.41C81.5875 10.2656 81.4338 10.1655 81.2602 10.13C80.9271 10.0753 80.5862 10.0923 80.2602 10.18L80.2002 9.89L85.0002 8.94C85.9274 8.72524 86.8794 8.63777 87.8302 8.68C88.4286 8.7326 88.9936 8.97828 89.4402 9.38C89.902 9.77951 90.2097 10.3277 90.3102 10.93C90.3941 11.2861 90.3982 11.6564 90.3221 12.0143C90.246 12.3722 90.0917 12.7088 89.8702 13C89.5109 13.441 89.0468 13.7848 88.5202 14L91.7002 17.07C91.9645 17.3355 92.2524 17.5765 92.5602 17.79C92.8019 17.9085 93.0731 17.9537 93.3402 17.92L93.4002 18.2L90.1102 18.82L85.8402 14.69L85.1502 14.81ZM84.1502 9.68L85.0102 14.26L85.4502 14.18C85.9973 14.1002 86.5277 13.9313 87.0202 13.68C87.3481 13.4808 87.5958 13.173 87.7202 12.81C87.8489 12.3556 87.8489 11.8744 87.7202 11.42C87.6887 11.0983 87.5938 10.786 87.4411 10.5011C87.2883 10.2162 87.0807 9.9643 86.8302 9.76C86.2738 9.44686 85.6168 9.36429 85.0002 9.53L84.1502 9.68Z" fill="#0D1622"/>
<path d="M100.24 14.84L96.49 15L96.09 16C95.9745 16.2757 95.9134 16.5711 95.91 16.87C95.9065 17.0029 95.9414 17.134 96.0106 17.2476C96.0797 17.3611 96.1803 17.4522 96.3 17.51C96.6231 17.6128 96.9612 17.6602 97.3 17.65V18L93.77 18.16V17.87C94.1281 17.8098 94.4537 17.6258 94.69 17.35C95.0543 16.8508 95.3378 16.2973 95.53 15.71L99 7.06H99.14L103.37 15.6C103.613 16.1605 103.952 16.6748 104.37 17.12C104.592 17.2858 104.863 17.3736 105.14 17.37V17.66L100 17.89V17.6H100.21C100.511 17.6102 100.808 17.5375 101.07 17.39C101.124 17.3455 101.167 17.2888 101.195 17.2244C101.223 17.16 101.235 17.09 101.23 17.02C101.219 16.9217 101.199 16.8247 101.17 16.73C101.17 16.73 101.07 16.49 100.91 16.16L100.24 14.84ZM99.95 14.27L98.2 10.68L96.74 14.42L99.95 14.27Z" fill="#0D1622"/>
<path d="M116.19 14.87L115.46 18.55L106.05 17.71V17.42H106.4C106.657 17.4591 106.921 17.4244 107.16 17.32C107.312 17.2534 107.433 17.132 107.5 16.98C107.612 16.6582 107.673 16.3207 107.68 15.98L108.31 8.97999C108.362 8.64873 108.362 8.31125 108.31 7.97999C108.251 7.81995 108.142 7.68315 108 7.58999C107.789 7.45785 107.548 7.38209 107.3 7.36999H106.95V7.07999L112.6 7.58999V7.87999H112.14C111.882 7.84088 111.619 7.87555 111.38 7.97999C111.227 8.04913 111.103 8.16937 111.03 8.31999C110.917 8.64174 110.857 8.97924 110.85 9.31999L110.25 16.07C110.2 16.4014 110.2 16.7385 110.25 17.07C110.277 17.1508 110.32 17.2252 110.377 17.2888C110.434 17.3524 110.503 17.4038 110.58 17.44C110.885 17.5317 111.201 17.5822 111.52 17.59L112.41 17.67C112.893 17.7332 113.385 17.6747 113.84 17.5C114.262 17.3152 114.628 17.0219 114.9 16.65C115.293 16.088 115.609 15.4759 115.84 14.83L116.19 14.87Z" fill="#0D1622"/>
<path d="M121.73 19.61L121.81 19.33L122.15 19.43C122.385 19.5084 122.636 19.5256 122.88 19.48C123.056 19.4305 123.215 19.3336 123.34 19.2C123.488 18.9039 123.602 18.5919 123.68 18.27L125.6 11.54C125.717 11.2187 125.784 10.8815 125.8 10.54C125.769 10.3717 125.684 10.2176 125.56 10.1C125.382 9.93004 125.16 9.8124 124.92 9.76L124.58 9.66L124.66 9.38L129.24 10.69C130.257 10.9287 131.213 11.3746 132.05 12C132.812 12.6267 133.352 13.4823 133.59 14.44C133.821 15.4314 133.786 16.4662 133.49 17.44C133.306 18.1207 132.997 18.7615 132.58 19.33C132.216 19.8212 131.765 20.2414 131.25 20.57C130.773 20.8565 130.248 21.053 129.7 21.15C129.063 21.243 128.417 21.243 127.78 21.15C127.281 21.091 126.789 20.9838 126.31 20.83L121.73 19.61ZM128.4 11.08L126.11 19.08C126.017 19.3337 125.963 19.6001 125.95 19.87C125.961 19.9773 126.011 20.077 126.09 20.15C126.248 20.2868 126.437 20.3829 126.64 20.43C127 20.5577 127.385 20.5962 127.763 20.5422C128.141 20.4882 128.5 20.3434 128.81 20.12C129.807 19.2509 130.489 18.0767 130.75 16.78C131.109 15.712 131.205 14.5731 131.03 13.46C130.926 12.8321 130.608 12.2596 130.13 11.84C129.606 11.4803 129.019 11.2225 128.4 11.08Z" fill="#0D1622"/>
<path d="M138.68 25L138.57 25.27L133.42 23.16L133.53 22.89L133.86 23.02C134.093 23.1308 134.353 23.1757 134.61 23.15C134.777 23.131 134.931 23.0488 135.04 22.92C135.239 22.6532 135.395 22.3561 135.5 22.04L138.15 15.57C138.303 15.254 138.407 14.9169 138.46 14.57C138.452 14.3992 138.385 14.2364 138.27 14.11C138.111 13.9211 137.904 13.7793 137.67 13.7L137.35 13.56L137.46 13.29L142.6 15.4L142.49 15.67L142.17 15.54C141.933 15.4298 141.67 15.3849 141.41 15.41C141.242 15.4353 141.087 15.5162 140.97 15.64C140.772 15.9064 140.62 16.2038 140.52 16.52L137.87 23C137.716 23.3155 137.611 23.6528 137.56 24C137.577 24.1687 137.643 24.3288 137.75 24.46C137.912 24.6447 138.119 24.7857 138.35 24.87L138.68 25Z" fill="#0D1622"/>
<path d="M151.2 19.49L149.62 22.67L149.34 22.52C149.615 21.7368 149.615 20.8832 149.34 20.1C149.114 19.4127 148.635 18.8371 148 18.49C147.604 18.2512 147.131 18.1759 146.68 18.28C146.496 18.3166 146.322 18.394 146.171 18.5064C146.021 18.6189 145.897 18.7636 145.81 18.93C145.704 19.1226 145.652 19.3403 145.66 19.56C145.695 19.9109 145.8 20.2511 145.97 20.56C146.294 21.1167 146.655 21.6512 147.05 22.16C147.698 22.9603 148.181 23.8815 148.47 24.87C148.593 25.5352 148.487 26.2224 148.17 26.82C147.967 27.2064 147.683 27.5448 147.338 27.8122C146.993 28.0796 146.595 28.2698 146.17 28.37C145.229 28.61 144.232 28.4736 143.39 27.99C143.104 27.8439 142.836 27.6661 142.59 27.46C142.297 27.1926 142.026 26.9016 141.78 26.59C141.653 26.4165 141.489 26.2732 141.3 26.17C141.162 26.0986 141.004 26.074 140.85 26.1C140.647 26.1357 140.457 26.2255 140.3 26.36L140.04 26.22L141.91 22.67L142.17 22.8C141.86 23.7452 141.86 24.7647 142.17 25.71C142.414 26.4672 142.94 27.1012 143.64 27.48C144.079 27.7403 144.602 27.8225 145.1 27.71C145.311 27.6672 145.509 27.5788 145.682 27.451C145.855 27.3231 145.998 27.1589 146.1 26.97C146.22 26.7425 146.275 26.4866 146.26 26.23C146.244 25.9241 146.166 25.6247 146.03 25.35C145.78 24.8555 145.482 24.3866 145.14 23.95C144.648 23.3096 144.22 22.623 143.86 21.9C143.654 21.4431 143.539 20.9507 143.52 20.45C143.51 19.9745 143.628 19.5049 143.86 19.09C144.042 18.7268 144.299 18.4068 144.615 18.1515C144.93 17.8962 145.297 17.7115 145.69 17.61C146.106 17.4917 146.541 17.4574 146.97 17.5089C147.399 17.5604 147.814 17.6967 148.19 17.91C148.488 18.0708 148.767 18.2654 149.02 18.49C149.255 18.7103 149.467 18.955 149.65 19.22C149.793 19.442 149.976 19.6353 150.19 19.79C150.244 19.8137 150.301 19.8259 150.36 19.8259C150.419 19.8259 150.477 19.8137 150.53 19.79C150.72 19.6839 150.884 19.5371 151.01 19.36L151.2 19.49Z" fill="#0D1622"/>
<path d="M162.19 27L160.55 29.37L160.32 29.21C160.523 28.7336 160.645 28.2266 160.68 27.71C160.675 27.3397 160.571 26.9774 160.38 26.66C160.171 26.3795 159.909 26.1418 159.61 25.96L159 25.5L154.32 32.25C154.108 32.5188 153.94 32.8191 153.82 33.14C153.793 33.3088 153.825 33.4817 153.91 33.63C154.022 33.8538 154.196 34.041 154.41 34.17L154.7 34.37L154.53 34.61L149.95 31.44L150.12 31.2L150.41 31.4C150.617 31.5586 150.862 31.6588 151.12 31.69C151.287 31.7027 151.453 31.6567 151.59 31.56C151.841 31.3412 152.057 31.0848 152.23 30.8L156.9 24.05L156.27 23.62C155.836 23.261 155.283 23.0758 154.72 23.1C154.043 23.2237 153.428 23.5768 152.98 24.1L152.74 23.93L154.38 21.56L162.19 27Z" fill="#0D1622"/>
<path d="M163.42 35.65L161.42 37.85C161.156 38.1008 160.936 38.3951 160.77 38.72C160.712 38.8884 160.712 39.0716 160.77 39.24C160.93 39.5369 161.148 39.7987 161.41 40.01L161.22 40.22L157.22 36.54L157.42 36.33C157.657 36.5749 157.939 36.7718 158.25 36.91C158.416 36.9656 158.595 36.9656 158.76 36.91C159.07 36.7191 159.344 36.4754 159.57 36.19L164.24 31.1C164.507 30.8446 164.73 30.5473 164.9 30.22C164.954 30.0542 164.954 29.8758 164.9 29.71C164.743 29.4114 164.525 29.149 164.26 28.94L164.45 28.72L168.05 32C168.773 32.6172 169.412 33.3265 169.95 34.11C170.263 34.6228 170.407 35.2211 170.36 35.82C170.312 36.4262 170.058 36.9978 169.64 37.44C169.4 37.7174 169.102 37.9383 168.766 38.087C168.431 38.2357 168.067 38.3084 167.7 38.3C167.132 38.2768 166.578 38.1118 166.09 37.82L165.54 42.2C165.478 42.5732 165.457 42.9523 165.48 43.33C165.532 43.5947 165.661 43.8382 165.85 44.03L165.65 44.24L163.18 42L163.93 36.11L163.42 35.65ZM166.94 31.81L163.79 35.24L164.12 35.55C164.509 35.9548 164.962 36.2927 165.46 36.55C165.821 36.6849 166.219 36.6849 166.58 36.55C167.025 36.3961 167.42 36.1228 167.72 35.76C168.202 35.3178 168.489 34.7032 168.52 34.05C168.473 33.7205 168.36 33.4038 168.188 33.1187C168.017 32.8336 167.789 32.5858 167.52 32.39L166.94 31.81Z" fill="#0D1622"/>
<path d="M169.91 48.92L169.69 49.11L166 44.92L166.22 44.73L166.45 44.99C166.608 45.1955 166.819 45.3544 167.06 45.45C167.222 45.5049 167.398 45.5049 167.56 45.45C167.853 45.2913 168.122 45.0927 168.36 44.86L173.63 40.26C173.9 40.0471 174.138 39.7981 174.34 39.52C174.388 39.3568 174.388 39.1832 174.34 39.02C174.279 38.7815 174.154 38.5638 173.98 38.39L173.75 38.12L173.97 37.93L177.63 42.12L177.41 42.31L177.18 42.04C177.019 41.8402 176.809 41.6853 176.57 41.59C176.408 41.5351 176.232 41.5351 176.07 41.59C175.775 41.7409 175.505 41.9365 175.27 42.17L170 46.78C169.727 46.9846 169.487 47.231 169.29 47.51C169.243 47.6767 169.243 47.8532 169.29 48.02C169.353 48.2576 169.477 48.4747 169.65 48.65L169.91 48.92Z" fill="#0D1622"/>
<path d="M179.08 52.32C179.412 53.0171 179.59 53.7779 179.6 54.55C179.585 54.9044 179.486 55.2501 179.312 55.5594C179.139 55.8686 178.895 56.1326 178.6 56.33C178.289 56.5544 177.931 56.7037 177.552 56.7662C177.174 56.8287 176.787 56.8026 176.42 56.69C175.27 56.2664 174.298 55.4664 173.66 54.42L170.54 50L170.78 49.84C170.954 50.131 171.189 50.3802 171.47 50.57C171.621 50.6592 171.797 50.6944 171.97 50.67C172.314 50.5421 172.634 50.3598 172.92 50.13L178.56 46.13C178.871 45.9371 179.151 45.6976 179.39 45.42C179.47 45.2628 179.495 45.083 179.46 44.91C179.374 44.5772 179.217 44.2669 179 44L179.23 43.83L182.17 48C182.718 48.6848 183.135 49.4644 183.4 50.3C183.513 50.8125 183.479 51.3465 183.3 51.84C183.131 52.3014 182.828 52.7018 182.43 52.99C182.011 53.2833 181.496 53.4049 180.99 53.33C180.273 53.1749 179.612 52.8255 179.08 52.32ZM177.08 50.21L174.29 52.21L173.97 52.43C173.771 52.55 173.627 52.7442 173.57 52.97C173.546 53.2032 173.614 53.4363 173.76 53.62C173.995 53.9495 174.303 54.22 174.66 54.41C175.008 54.5875 175.403 54.6538 175.79 54.6C176.195 54.5454 176.58 54.3907 176.91 54.15C177.295 53.9044 177.606 53.5588 177.81 53.15C177.995 52.7606 178.041 52.3193 177.94 51.9C177.765 51.2904 177.48 50.7177 177.1 50.21H177.08ZM177.58 49.86C177.878 50.3371 178.273 50.746 178.74 51.06C179.043 51.2359 179.39 51.3226 179.74 51.31C180.144 51.2756 180.529 51.1264 180.85 50.88C181.19 50.6565 181.462 50.3456 181.64 49.98C181.769 49.6633 181.804 49.316 181.74 48.98C181.584 48.4375 181.322 47.9312 180.97 47.49L177.58 49.86Z" fill="#0D1622"/>
<path d="M186.4 54.28L188.94 59.15L188.68 59.29L188.55 59.04C188.435 58.7768 188.264 58.5414 188.05 58.35C187.912 58.2556 187.747 58.2098 187.58 58.22C187.206 58.3116 186.849 58.46 186.52 58.66L181.9 61.06C181.314 61.3205 180.779 61.6827 180.32 62.13C180.109 62.4227 179.988 62.7699 179.97 63.13C179.951 63.5665 180.055 63.9995 180.27 64.38C180.49 64.8438 180.837 65.2356 181.27 65.51C181.687 65.7432 182.163 65.8509 182.64 65.82C183.435 65.6842 184.198 65.4028 184.89 64.99L188.73 62.99C189.053 62.8531 189.34 62.6445 189.57 62.38C189.695 62.231 189.765 62.0442 189.77 61.85C189.753 61.4972 189.65 61.154 189.47 60.85L189.73 60.71L191.43 63.98L191.17 64.11L191.07 63.91C190.955 63.6772 190.779 63.4802 190.56 63.34C190.36 63.216 190.123 63.1664 189.89 63.2C189.591 63.2628 189.303 63.3743 189.04 63.53L185.46 65.4C184.665 65.8378 183.819 66.1738 182.94 66.4C182.28 66.4923 181.608 66.3621 181.03 66.03C180.221 65.577 179.58 64.8758 179.2 64.03C178.837 63.3978 178.612 62.6957 178.54 61.97C178.493 61.308 178.661 60.6483 179.02 60.09C179.453 59.5057 180.028 59.0412 180.69 58.74L185.31 56.33C185.675 56.1785 186.012 55.9691 186.31 55.71C186.413 55.5717 186.466 55.4024 186.46 55.23C186.423 54.919 186.313 54.621 186.14 54.36L186.4 54.28Z" fill="#0D1622"/>
<path d="M195.74 75.55L193.03 76.55L192.93 76.28C193.372 76.0167 193.764 75.6783 194.09 75.28C194.297 74.9841 194.425 74.6396 194.46 74.28C194.456 73.9361 194.385 73.5963 194.25 73.28L193.98 72.54L186.25 75.3C185.92 75.3954 185.606 75.5404 185.32 75.73C185.203 75.8536 185.13 76.0113 185.11 76.18C185.075 76.427 185.106 76.6788 185.2 76.91L185.32 77.24L185.05 77.34L183.17 72L183.45 71.91L183.56 72.24C183.639 72.4882 183.78 72.7121 183.97 72.89C184.1 72.996 184.262 73.0557 184.43 73.06C184.774 73.0308 185.112 72.9463 185.43 72.81L193.16 70.05L192.9 69.32C192.746 68.7717 192.388 68.303 191.9 68.01C191.277 67.712 190.571 67.6378 189.9 67.8L189.8 67.52L192.51 66.52L195.74 75.55Z" fill="#0D1622"/>
<path d="M187.62 85.87L187.34 85.94L186 80.54L186.28 80.47L186.37 80.81C186.418 81.065 186.531 81.3029 186.7 81.5C186.82 81.6165 186.974 81.6902 187.14 81.71C187.479 81.717 187.818 81.6662 188.14 81.56L195 79.92C195.348 79.8604 195.685 79.7491 196 79.59C196.133 79.4845 196.225 79.336 196.26 79.17C196.324 78.9309 196.324 78.6791 196.26 78.44L196.18 78.1L196.46 78.03L197.77 83.44L197.49 83.51L197.41 83.16C197.355 82.9087 197.238 82.675 197.07 82.48C196.954 82.3556 196.799 82.2745 196.63 82.25C196.291 82.254 195.955 82.3045 195.63 82.4L188.83 84.05C188.481 84.1056 188.143 84.217 187.83 84.38C187.698 84.4881 187.604 84.6351 187.56 84.8C187.496 85.0391 187.496 85.2909 187.56 85.53L187.62 85.87Z" fill="#0D1622"/>
<path d="M199.16 91.65C199.316 92.3798 199.315 93.1345 199.157 93.8639C198.999 94.5934 198.689 95.281 198.245 95.8814C197.802 96.4817 197.236 96.981 196.585 97.3462C195.934 97.7114 195.213 97.9343 194.47 98C193.195 98.1815 191.896 97.9203 190.79 97.26C190.06 96.8248 189.446 96.2207 188.999 95.4984C188.551 94.7762 188.284 93.957 188.22 93.11C188.075 92.2794 188.126 91.4264 188.369 90.6191C188.612 89.8117 189.04 89.0723 189.62 88.46C190.545 87.5141 191.773 86.9231 193.09 86.79C193.815 86.681 194.555 86.7242 195.263 86.9171C195.971 87.1099 196.63 87.4481 197.2 87.91C197.773 88.3586 198.245 88.9241 198.583 89.569C198.92 90.2138 199.117 90.9232 199.16 91.65ZM198.67 91.8C198.61 91.3321 198.412 90.8925 198.103 90.5366C197.793 90.1807 197.385 89.9244 196.93 89.8C195.769 89.4709 194.549 89.4059 193.36 89.61C191.954 89.6634 190.6 90.1487 189.48 91C189.207 91.2483 189.001 91.5625 188.884 91.9126C188.767 92.2628 188.741 92.6371 188.81 93C188.842 93.4797 189.036 93.9344 189.36 94.29C189.83 94.7519 190.43 95.059 191.08 95.17C192.04 95.3238 193.019 95.3238 193.98 95.17C195.045 95.0862 196.09 94.826 197.07 94.4C197.625 94.1462 198.094 93.7362 198.42 93.22C198.651 92.785 198.739 92.2878 198.67 91.8Z" fill="#0D1622"/>
<path d="M199.74 103.9L193 109L197.57 109.11C198.018 109.173 198.474 109.089 198.87 108.87C199.039 108.712 199.169 108.517 199.251 108.3C199.332 108.083 199.363 107.85 199.34 107.62H199.63L199.55 111.14H199.26C199.247 110.827 199.179 110.519 199.06 110.23C198.957 110.062 198.803 109.933 198.62 109.86C198.279 109.743 197.92 109.689 197.56 109.7L188.71 109.49V109.22L197.71 102.22L190.95 102.06C190.726 102.028 190.497 102.047 190.281 102.115C190.065 102.182 189.866 102.297 189.7 102.45C189.47 102.732 189.346 103.086 189.35 103.45V103.7H189.06L189.15 99.93H189.44C189.384 100.367 189.503 100.809 189.77 101.16C190.104 101.433 190.529 101.569 190.96 101.54L198.47 101.72L198.76 101.5C198.982 101.342 199.175 101.145 199.33 100.92C199.437 100.685 199.492 100.429 199.49 100.17H199.78L199.74 103.9Z" fill="#0D1622"/>
<path d="M198.45 120.78L194.93 120.35V120.03C195.762 120.038 196.571 119.759 197.22 119.24C197.803 118.808 198.194 118.166 198.31 117.45C198.404 116.999 198.318 116.529 198.07 116.14C197.917 115.881 197.678 115.685 197.394 115.586C197.11 115.487 196.801 115.492 196.52 115.6C196.21 115.748 195.931 115.955 195.7 116.21C195.282 116.703 194.895 117.22 194.54 117.76C194.001 118.64 193.29 119.401 192.45 120C191.863 120.335 191.179 120.462 190.51 120.36C190.08 120.296 189.668 120.14 189.302 119.904C188.937 119.668 188.626 119.356 188.39 118.99C187.853 118.181 187.652 117.195 187.83 116.24C187.876 115.922 187.956 115.61 188.07 115.31C188.229 114.964 188.413 114.629 188.62 114.31C188.737 114.129 188.822 113.93 188.87 113.72C188.889 113.563 188.853 113.404 188.77 113.27C188.675 113.089 188.534 112.937 188.36 112.83V112.55L192.36 113.14V113.43C191.364 113.436 190.397 113.762 189.6 114.36C188.96 114.848 188.534 115.565 188.41 116.36C188.305 116.86 188.402 117.381 188.68 117.81C188.786 117.99 188.931 118.144 189.104 118.262C189.277 118.379 189.474 118.457 189.68 118.49C189.934 118.53 190.193 118.499 190.43 118.4C190.715 118.288 190.974 118.118 191.19 117.9C191.56 117.496 191.895 117.061 192.19 116.6C192.631 115.922 193.137 115.289 193.7 114.71C194.06 114.364 194.485 114.092 194.95 113.91C195.398 113.747 195.88 113.702 196.35 113.78C196.752 113.835 197.137 113.974 197.482 114.187C197.827 114.401 198.122 114.685 198.35 115.02C198.844 115.738 199.034 116.622 198.88 117.48C198.833 117.823 198.742 118.16 198.61 118.48C198.476 118.771 198.316 119.049 198.13 119.31C197.968 119.519 197.846 119.756 197.77 120.01C197.757 120.069 197.757 120.13 197.771 120.189C197.785 120.248 197.812 120.303 197.85 120.35C198.012 120.491 198.203 120.594 198.41 120.65L198.45 120.78Z" fill="#0D1622"/>
<path d="M184.77 131.37L184.49 131.28L186.12 125.97L186.4 126.05L186.3 126.39C186.214 126.634 186.193 126.896 186.24 127.15C186.274 127.314 186.367 127.459 186.5 127.56C186.786 127.73 187.096 127.855 187.42 127.93L194.11 129.99C194.43 130.112 194.768 130.183 195.11 130.2C195.282 130.178 195.441 130.096 195.56 129.97C195.732 129.796 195.853 129.578 195.91 129.34L196.01 129L196.29 129.09L194.66 134.4L194.38 134.32L194.49 133.98C194.577 133.736 194.597 133.474 194.55 133.22C194.51 133.054 194.415 132.906 194.28 132.8C193.993 132.632 193.683 132.508 193.36 132.43L186.67 130.38C186.349 130.261 186.012 130.187 185.67 130.16C185.502 130.191 185.348 130.275 185.23 130.4C185.057 130.575 184.933 130.792 184.87 131.03L184.77 131.37Z" fill="#0D1622"/>
<path d="M192.52 140.07L184.38 142.27L188.58 144.08C188.97 144.306 189.422 144.401 189.87 144.35C190.088 144.264 190.284 144.129 190.442 143.956C190.599 143.783 190.715 143.575 190.78 143.35L191.04 143.47L189.65 146.69L189.38 146.58C189.486 146.285 189.54 145.974 189.54 145.66C189.508 145.465 189.413 145.286 189.27 145.15C188.997 144.919 188.686 144.736 188.35 144.61L180.22 141.09L180.32 140.85L191.32 137.76L185.11 135.08C184.915 134.963 184.695 134.892 184.468 134.873C184.241 134.854 184.012 134.887 183.8 134.97C183.497 135.139 183.26 135.407 183.13 135.73L183.03 135.96L182.76 135.84L184.26 132.38L184.52 132.49C184.314 132.88 184.26 133.333 184.37 133.76C184.589 134.142 184.948 134.425 185.37 134.55L192.26 137.55L192.61 137.45C192.876 137.395 193.128 137.286 193.35 137.13C193.54 136.954 193.69 136.739 193.79 136.5L194.05 136.62L192.52 140.07Z" fill="#0D1622"/>
<path d="M183.21 158.06L180.07 156.13L180.23 155.87C181.052 156.178 181.954 156.199 182.79 155.93C183.527 155.682 184.152 155.178 184.55 154.51C184.9 153.955 185.064 153.304 185.02 152.65C184.986 151.994 184.764 151.363 184.38 150.83C183.839 150.106 183.159 149.497 182.38 149.04C181.631 148.589 180.819 148.252 179.97 148.04C179.288 147.818 178.552 147.818 177.87 148.04C177.21 148.308 176.662 148.795 176.32 149.42C175.978 149.962 175.775 150.58 175.73 151.22C175.711 152 175.837 152.776 176.1 153.51L175.32 153.03C175.091 152.289 175.029 151.506 175.14 150.738C175.251 149.97 175.531 149.236 175.96 148.59C176.487 147.684 177.229 146.922 178.12 146.37C178.939 145.857 179.895 145.606 180.86 145.65C181.815 145.682 182.745 145.961 183.56 146.46C184.407 146.998 185.097 147.75 185.56 148.64C186.053 149.539 186.292 150.556 186.25 151.58C186.215 152.588 185.919 153.57 185.39 154.43C184.953 155.116 184.394 155.716 183.74 156.2C183.474 156.379 183.233 156.59 183.02 156.83C182.977 156.899 182.948 156.977 182.936 157.058C182.924 157.139 182.929 157.221 182.95 157.3C183.015 157.505 183.145 157.684 183.32 157.81L183.21 158.06Z" fill="#0D1622"/>
<path d="M173.72 156.54C173.617 156.677 173.488 156.792 173.34 156.878C173.193 156.965 173.03 157.022 172.86 157.045C172.691 157.069 172.518 157.059 172.353 157.016C172.187 156.973 172.032 156.898 171.895 156.795C171.758 156.692 171.643 156.563 171.557 156.415C171.47 156.268 171.413 156.105 171.389 155.935C171.366 155.766 171.376 155.593 171.419 155.428C171.462 155.262 171.537 155.107 171.64 154.97C171.74 154.83 171.869 154.713 172.017 154.625C172.165 154.538 172.329 154.481 172.5 154.46C172.675 154.427 172.855 154.432 173.027 154.475C173.2 154.518 173.361 154.598 173.5 154.71C173.639 154.811 173.755 154.94 173.843 155.088C173.931 155.236 173.988 155.4 174.01 155.57C174.032 155.743 174.018 155.919 173.968 156.086C173.918 156.253 173.833 156.407 173.72 156.54Z" fill="#0D1622"/>
<path d="M47.9201 28.44C47.2939 28.1638 46.5998 28.0794 45.9257 28.1977C45.2515 28.3159 44.6276 28.6314 44.1328 29.1043C43.6381 29.5772 43.2946 30.1862 43.146 30.8543C42.9974 31.5224 43.0503 32.2196 43.2979 32.8576C43.5456 33.4957 43.9769 34.046 44.5374 34.4388C45.0978 34.8317 45.7622 35.0495 46.4464 35.0648C47.1307 35.08 47.8041 34.892 48.3815 34.5244C48.9588 34.1569 49.4142 33.6264 49.6901 33C50.0597 32.1606 50.0809 31.2087 49.749 30.3536C49.4171 29.4985 48.7593 28.8102 47.9201 28.44Z" fill="#0D1622"/>
<path d="M156.19 176.22C155.564 175.944 154.87 175.859 154.196 175.978C153.522 176.096 152.898 176.411 152.403 176.884C151.908 177.357 151.565 177.966 151.416 178.634C151.267 179.302 151.32 180 151.568 180.638C151.816 181.276 152.247 181.826 152.807 182.219C153.368 182.612 154.032 182.83 154.716 182.845C155.401 182.86 156.074 182.672 156.651 182.304C157.229 181.937 157.684 181.406 157.96 180.78C158.144 180.365 158.245 179.917 158.256 179.462C158.267 179.008 158.187 178.556 158.023 178.132C157.858 177.708 157.612 177.321 157.297 176.993C156.983 176.665 156.606 176.402 156.19 176.22Z" fill="#0D1622"/>
<path d="M142.29 67.36C140.696 66.9344 139.066 66.6631 137.42 66.55C136.7 66.48 135.92 66.44 135.12 66.44C130.2 66.44 124.06 67.7 120.42 73.03C117.707 73.5963 114.967 74.0202 112.21 74.3C111.39 58.95 109.1 45.1 103.94 45.1C98.51 45.1 96.2 59 95.45 74.56C92.5683 74.3727 89.6979 74.0389 86.85 73.56C82.67 66.84 74.73 66.11 69.45 66.56C68.57 66.62 67.77 66.73 67.06 66.84C66.2408 66.971 65.4295 67.1479 64.63 67.37C51.2 71.37 37.2 87.37 42.26 103.94C46 116.1 59.44 140 67 153C68.41 155.42 69.62 157.46 70.52 159C71.0465 159.88 71.7923 160.608 72.6846 161.112C73.5768 161.617 74.5849 161.882 75.61 161.88H131.15C132.195 161.88 133.223 161.609 134.133 161.094C135.042 160.579 135.803 159.837 136.34 158.94L137.34 157.18C143.99 145.97 160.42 117.64 164.59 104C169.73 87.34 155.72 71.39 142.29 67.36Z" fill="#0D1622"/>
<path d="M142.29 67.36C140.696 66.9344 139.066 66.6632 137.42 66.55C136.7 66.48 135.92 66.44 135.12 66.44C130.2 66.44 124.06 67.7 120.42 73.03C119.797 73.9343 119.274 74.9033 118.86 75.92C115.66 84.28 112.07 94.74 109.15 103.56C108.751 104.753 107.987 105.791 106.966 106.526C105.945 107.261 104.718 107.656 103.46 107.656C102.202 107.656 100.976 107.261 99.9545 106.526C98.9334 105.791 98.1692 104.753 97.77 103.56C94.84 94.75 91.26 84.29 88.06 75.93C87.7316 75.1071 87.3265 74.317 86.85 73.57C82.67 66.85 74.73 66.12 69.45 66.57C68.57 66.63 67.77 66.74 67.06 66.85C66.2408 66.981 65.4295 67.1579 64.63 67.38C51.2 71.38 37.2 87.38 42.26 103.95C46 116.1 59.44 140 67 153C68.4 155.41 69.6 157.44 70.5 158.94C71.0331 159.827 71.7865 160.561 72.6872 161.071C73.5878 161.581 74.6051 161.849 75.64 161.85H131.18C132.216 161.848 133.234 161.579 134.135 161.067C135.035 160.555 135.788 159.819 136.32 158.93L137.38 157.15C144.03 145.94 160.46 117.61 164.63 103.97C169.73 87.34 155.72 71.39 142.29 67.36ZM75.4 134.42C74.3496 134.417 73.3182 134.139 72.4092 133.612C71.5002 133.086 70.7453 132.33 70.22 131.42L54.58 104.57C47.68 92.73 56.43 78 70.36 78C72.2317 77.9895 74.0619 78.5508 75.6059 79.6087C77.1499 80.6667 78.3341 82.1708 79 83.92L94.83 126.33C95.1668 127.236 95.2796 128.21 95.1588 129.17C95.038 130.129 94.6873 131.045 94.1363 131.839C93.5854 132.634 92.8507 133.283 91.9947 133.732C91.1387 134.182 90.1868 134.418 89.22 134.42H75.4ZM152.33 104.57L136.68 131.44C136.155 132.35 135.4 133.106 134.491 133.632C133.582 134.159 132.551 134.437 131.5 134.44H117.71C116.742 134.439 115.789 134.205 114.932 133.756C114.075 133.307 113.339 132.658 112.787 131.863C112.235 131.068 111.883 130.152 111.762 129.192C111.64 128.232 111.753 127.257 112.09 126.35L127.93 83.94C128.597 82.1969 129.779 80.6985 131.319 79.6444C132.859 78.5903 134.684 78.0307 136.55 78.04C150.48 78 159.22 92.73 152.33 104.57Z" fill="#DDDB1F"/>
<path d="M82.1301 150.92H77.5101L77.0001 152.19C76.8376 152.518 76.7424 152.875 76.7201 153.24C76.7099 153.404 76.7469 153.567 76.8266 153.711C76.9064 153.854 77.0256 153.972 77.1701 154.05C77.5776 154.211 78.012 154.292 78.4501 154.29V154.64H74.0601V154.29C74.5031 154.233 74.9129 154.024 75.2201 153.7C75.6875 153.091 76.0647 152.417 76.3401 151.7L81.0001 141.28H81.1801L85.9201 152C86.167 152.703 86.5323 153.36 87.0001 153.94C87.264 154.154 87.5903 154.277 87.9301 154.29V154.64H81.6301V154.29H81.8901C82.2606 154.323 82.6326 154.247 82.9601 154.07C83.029 154.02 83.0844 153.954 83.121 153.877C83.1577 153.8 83.1746 153.715 83.1701 153.63C83.1689 153.508 83.1486 153.386 83.1101 153.27C83.1101 153.22 83.0001 152.97 82.8201 152.55L82.1301 150.92ZM81.8001 150.2L79.8001 145.7L77.8001 150.2H81.8001Z" fill="#0D1622"/>
<path d="M94.42 148.68V152.35C94.3926 152.797 94.4365 153.246 94.55 153.68C94.6475 153.876 94.8102 154.031 95.01 154.12C95.4042 154.26 95.8227 154.318 96.24 154.29V154.64H89.54V154.29C89.9573 154.318 90.3759 154.26 90.77 154.12C90.9635 154.026 91.1213 153.871 91.22 153.68C91.339 153.247 91.3829 152.798 91.35 152.35V143.85C91.3827 143.399 91.3388 142.946 91.22 142.51C91.1225 142.314 90.9599 142.159 90.76 142.07C90.3672 141.94 89.9532 141.885 89.54 141.91V141.55H95.62C96.7862 141.506 97.9531 141.617 99.09 141.88C99.8039 142.081 100.435 142.505 100.89 143.09C101.35 143.681 101.594 144.411 101.58 145.16C101.598 145.609 101.518 146.056 101.346 146.471C101.173 146.885 100.912 147.257 100.58 147.56C100.043 148.008 99.4045 148.317 98.72 148.46L101.87 152.89C102.124 153.274 102.416 153.633 102.74 153.96C103.007 154.16 103.327 154.275 103.66 154.29V154.64H99.5L95.28 148.64L94.42 148.68ZM94.42 142.26V148H95C95.6753 148.028 96.3507 147.947 97 147.76C97.4227 147.582 97.7745 147.269 98 146.87C98.2723 146.353 98.4034 145.774 98.38 145.19C98.4467 144.39 98.1951 143.596 97.68 142.98C97.3686 142.719 97.0086 142.522 96.6208 142.4C96.233 142.278 95.8249 142.234 95.42 142.27L94.42 142.26Z" fill="#0D1622"/>
<path d="M112.66 150.92H108L107.45 152.19C107.294 152.52 107.203 152.876 107.18 153.24C107.169 153.403 107.204 153.565 107.282 153.709C107.36 153.852 107.477 153.971 107.62 154.05C108.028 154.21 108.462 154.291 108.9 154.29V154.64H104.55V154.29C104.993 154.233 105.403 154.024 105.71 153.7C106.181 153.093 106.559 152.419 106.83 151.7L111.51 141.25H111.69L116.46 152C116.718 152.698 117.093 153.348 117.57 153.92C117.829 154.135 118.153 154.259 118.49 154.27V154.62H112.16V154.27H112.42C112.79 154.304 113.163 154.228 113.49 154.05C113.559 154 113.614 153.934 113.651 153.857C113.687 153.78 113.704 153.695 113.7 153.61C113.714 153.49 113.714 153.37 113.7 153.25C113.7 153.2 113.59 152.95 113.41 152.53L112.66 150.92ZM112.33 150.2L110.33 145.7L108.33 150.2H112.33Z" fill="#0D1622"/>
<path d="M132.18 150.05L131.69 154.64H120.07V154.29H120.5C120.82 154.305 121.138 154.232 121.42 154.08C121.601 153.979 121.74 153.815 121.81 153.62C121.904 153.221 121.938 152.809 121.91 152.4V143.79C121.936 143.371 121.903 142.95 121.81 142.54C121.716 142.352 121.566 142.198 121.38 142.1C121.109 141.96 120.805 141.894 120.5 141.91H120.07V141.55H127.07V141.91H126.5C126.181 141.897 125.864 141.966 125.58 142.11C125.398 142.215 125.26 142.382 125.19 142.58C125.085 142.974 125.048 143.383 125.08 143.79V152.13C125.052 152.56 125.092 152.992 125.2 153.41C125.24 153.507 125.301 153.595 125.379 153.666C125.456 153.737 125.549 153.789 125.65 153.82C126.034 153.902 126.428 153.932 126.82 153.91H127.91C128.511 153.931 129.109 153.804 129.65 153.54C130.145 153.265 130.558 152.865 130.85 152.38C131.291 151.654 131.628 150.87 131.85 150.05H132.18Z" fill="#0D1622"/>
</g>
<defs>
<clipPath id="clip0_1717_952">
<rect width="206.91" height="206.91" fill="white"/>
</clipPath>
</defs>
</svg>
