<svg width="105" height="37" viewBox="0 0 105 37" fill="none" xmlns="http://www.w3.org/2000/svg">
<path d="M24.4635 37L15.2842 4.92987C14.4058 1.86816 12.6051 0 10.6726 0H6.71979V0.259465C8.87186 0.259465 9.92594 2.3352 9.31106 4.77419L0 37H0.878403L6.14882 18.7335H13.7909L19.0613 37H24.4635ZM6.45626 17.6957L9.96987 5.5007L13.4835 17.6957H6.45626Z" fill="white"/>
<path d="M51.8477 36.9999H55.1417L43.6786 22.1584L43.6347 22.1065C47.1044 20.4459 49.5639 16.502 49.5639 11.7797C49.5639 5.70821 45.3915 0.72644 40.2089 0.72644H24.8808V0.985908C27.0768 0.985908 28.8336 3.06164 28.8336 5.60442V36.9999H33.577V22.8849H38.2764L47.324 34.6128C48.5098 36.1177 50.1348 36.9999 51.8477 36.9999ZM33.577 21.7952V1.76431H38.9791C42.2292 1.76431 44.9084 6.27903 44.9084 11.7797C44.9084 15.3085 43.8103 18.4221 42.1853 20.1865C41.6143 20.8092 40.9995 21.2762 40.3407 21.5357C40.0771 21.6395 39.8136 21.7433 39.5501 21.7433C39.3744 21.7952 39.1987 21.7952 38.9791 21.7952H33.577Z" fill="white"/>
<path d="M80.8219 37L71.6426 4.92987C70.7642 1.86816 68.9635 0 67.031 0H63.0782V0.259465C65.2303 0.259465 66.2844 2.3352 65.6695 4.77419L56.3584 37H57.2368L62.5072 18.7335H70.1493L75.4197 37H80.8219ZM62.8147 17.6957L66.3283 5.5007L69.8419 17.6957H62.8147Z" fill="white"/>
<path d="M85.1481 5.60442V15.568H89.8915V0.72644H81.1953V0.934013C83.3913 0.934013 85.1481 3.06164 85.1481 5.60442ZM85.1481 36.9999H105V35.9621H89.8915V22.3141C89.8915 19.2005 87.7834 16.6577 85.1481 16.6577V36.9999Z" fill="white"/>
</svg>
